<?xml version="1.0" encoding="UTF-8"?>
<svg xmlns="http://www.w3.org/2000/svg" version="1.1" viewBox="0 0 1920 468.1">
  <defs>
    <style>
      .cls-1 {
        fill: #f9a621;
      }

      .cls-2 {
        fill: #fff;
      }
    </style>
  </defs>
  <!-- Generator: Adobe Illustrator 28.7.1, SVG Export Plug-In . SVG Version: 1.2.0 Build 142)  -->
  <g>
    <g id="Logo">
      <g>
        <g>
          <path class="cls-1" d="M245.7,151.4l76.2-76.2c2-2,2-5.1,0-7.1l-31.5-31.5c-2-2-5.1-2-7.1,0l-76.2,76.2c8.4,3.5,16.3,8.6,23.2,15.5,6.8,6.8,12,14.7,15.5,23.2Z"/>
          <path class="cls-1" d="M207.1,112.8V5c0-2.8-2.3-5-5-5h-44.6c-2.8,0-5,2.2-5,5v107.8c17.5-7.2,37.2-7.2,54.6,0Z"/>
          <path class="cls-1" d="M353.5,151.4h-107.8c7.2,17.5,7.2,37.2,0,54.6h107.8c2.8,0,5-2.3,5-5v-44.6c0-2.8-2.3-5-5-5Z"/>
          <path class="cls-1" d="M152.5,244.7v107.8c0,2.8,2.2,5,5,5h44.6c2.8,0,5-2.2,5-5v-107.8c-17.5,7.2-37.2,7.2-54.6,0Z"/>
          <path class="cls-1" d="M245.7,206.1c-3.5,8.4-8.6,16.3-15.5,23.2-6.8,6.8-14.7,12-23.2,15.5l76.2,76.2c2,2,5.1,2,7.1,0l31.5-31.5c2-2,2-5.1,0-7.1l-76.2-76.2Z"/>
        </g>
        <g>
          <g>
            <g>
              <path class="cls-2" d="M604.6,298.8c8.8-12.1,13.3-26.7,13.3-43.5s-4.3-30.5-12.8-41.6c-8.3-10.9-19.4-19.5-32.8-25.5-13.1-5.9-28.5-10.4-45.9-13.5-13.9-2.2-25.3-4.9-33.9-7.8-8.1-2.7-14.2-6.2-18-10.2-3.6-3.6-5.3-8-5.3-13.4s1.1-9,3.4-12.9c2.1-3.6,6.2-6.7,11.9-9.1,6.2-2.6,14.8-3.9,25.7-3.9s18.2,1.4,24.7,4.1c6.2,2.6,10.7,6.1,13.6,10.3,2.8,4.3,4.2,9,4.2,14.4s2.2,5,5,5h46.2c2.8,0,5-2.2,5-5,0-15.9-3.8-29.9-11.4-41.8-7.6-11.9-18.9-21.2-33.6-27.7-14.5-6.4-32.3-9.6-53.1-9.6s-39.5,3.2-53.8,9.5c-14.6,6.4-25.7,15.5-32.9,26.9-7.2,11.4-10.8,24.7-10.8,39.4s5,31.2,14.8,42.1c9.5,10.6,21.2,18.6,34.9,24,13.2,5.2,28.8,9.7,46.4,13.4,12,2.4,22,5,29.9,7.8,7.3,2.7,13,6.1,16.9,10.3,3.6,3.8,5.4,8.6,5.4,14.4s-1.6,12.5-5,17c-3.3,4.5-8.6,8-15.5,10.3-7.4,2.5-17.1,3.7-28.7,3.7s-17.8-1.4-24.8-4.1c-6.8-2.7-12.4-6.3-16.5-10.9-4-4.5-6.4-9.4-7.4-15.1l-.3-3.1c0-.9-.1-1.8-.1-2.7,0-2.8-2.2-5-5-5h-46c-2.8,0-5,2.2-5,5,0,14.6,3.8,28.5,11.3,41.4,7.5,12.9,19.4,23.6,35.3,31.6,15.7,7.9,35.5,11.9,58.8,11.9s39.3-3.1,55-9.1c16-6.2,28.5-15.4,37.3-27.3Z"/>
              <path class="cls-2" d="M828.1,156.5c0-2.8-2.3-5-5-5h-44.6c-2.8,0-5,2.3-5,5v88.7c0,8.7-1.2,16-3.5,21.8-2.2,5.5-5.4,9.5-9.9,12.4-4.5,2.9-10.3,4.3-17.4,4.3-10.4,0-17.8-3-22.8-9.3-5.2-6.5-7.8-16.4-7.8-29.3v-88.7c0-2.8-2.3-5-5-5h-44.6c-2.8,0-5,2.3-5,5v90c0,20.3,3.7,37.2,11,50.4,7.4,13.3,17.7,23.2,30.6,29.4,12.6,6,27.3,9.1,43.8,9.1s31-3.1,43.6-9.1c12.8-6.1,23.1-16,30.6-29.4,7.4-13.2,11.1-30.1,11.1-50.4v-90Z"/>
              <path class="cls-2" d="M1015,156.7c-10.9-7-24.4-10.5-40.4-10.5s-16.6,1.3-24.4,3.8c-7.7,2.6-14.7,6.2-20.7,10.8-1.8,1.4-3.5,2.9-5.1,4.4v-8.9c0-2.8-2.3-5-5-5h-42.6c-2.8,0-5,2.3-5,5v168.6c0,2.8,2.3,5,5,5h44.8c2.8,0,5-2.3,5-5v-84.8c0-9.3,1.7-17.2,5.1-23.6,3.3-6.3,7.7-11.1,13-14.3,5.4-3.2,11.2-4.8,17.6-4.8,9.7,0,16.9,2.8,22.1,8.6,5.3,5.9,7.9,15.7,7.9,29.1v89.7c0,2.8,2.3,5,5,5h44.9c2.8,0,5-2.3,5-5v-90.6c0-18.3-2.6-34.1-7.8-47-5.3-13.3-13.6-23.6-24.5-30.6Z"/>
              <path class="cls-2" d="M1549.6,151.4h-42.5c-2.8,0-5,2.3-5,5v10c-1.8-1.9-3.8-3.6-5.8-5.3-6.2-4.9-13.4-8.6-21.4-11.2-8-2.5-16.7-3.8-25.9-3.8-15.5,0-29.9,4.3-42.6,12.9-12.7,8.5-22.7,20.1-29.9,34.5-7.1,14.4-10.7,30.2-10.7,47.2s3.6,32.9,10.7,47.2c7.2,14.4,17.2,26,29.9,34.5,12.8,8.6,27.2,12.9,42.8,12.9s17.7-1.3,25.7-3.9c8-2.6,15.2-6.4,21.4-11.2,2.1-1.6,4-3.3,5.8-5.1v9.8c0,2.8,2.3,5,5,5h42.6c2.8,0,5-2.3,5-5v-168.6c0-2.8-2.3-5-5-5ZM1494.8,262.9c-3.5,6.6-8.4,11.8-14.4,15.5-6.1,3.7-12.7,5.6-20.2,5.6s-13.9-1.7-19.9-5.1c-6.1-3.4-10.8-8.2-14.5-14.7-3.6-6.5-5.5-14.4-5.5-23.3s1.8-16.4,5.4-22.9c3.6-6.4,8.4-11.4,14.4-14.9,6.1-3.5,12.9-5.2,20.2-5.2s13.8,1.8,20,5.6c6.1,3.8,11,9,14.5,15.5,3.6,6.6,5.4,13.9,5.4,21.9s-1.8,15.5-5.4,22.1Z"/>
              <path class="cls-2" d="M1707.7,151.4h-18.8c-7.5,0-14.3,1.2-20.3,3.6-6,2.4-11.3,6-15.8,10.5-.5.5-1,1.1-1.5,1.6v-10.7c0-2.8-2.3-5-5-5h-43c-2.8,0-5,2.3-5,5v168.6c0,2.8,2.3,5,5,5h44.9c2.8,0,5-2.3,5-5v-78.1c0-10.2,1.6-19,4.9-26.2,3.1-7,7.4-12.1,13.1-15.6,5.6-3.5,12.4-5.3,20.1-5.3h16.3c2.8,0,5-2.3,5-5v-38.4c0-2.8-2.3-5-5-5Z"/>
              <path class="cls-2" d="M1914,72.4h-44.6c-2.8,0-5,2.3-5,5v84.9c0,0,0,.2,0,.3l.2,2.9c-1.1-1-2.2-2.1-3.4-3.1-5.6-4.7-12.2-8.6-19.7-11.6-7.6-3.1-15.8-4.6-24.5-4.6-17,0-32.3,4.3-45.4,12.7-13.1,8.4-23.3,20-30.5,34.5-7.1,14.3-10.6,30.3-10.6,47.3s3.6,33.1,10.8,47.4c7.2,14.4,17.5,26,30.5,34.5,13.1,8.5,28.1,12.8,44.7,12.8s17.6-1.5,25.3-4.5c7.7-3,14.3-6.9,19.8-11.8,1.7-1.5,3.3-3,4.8-4.6v10.5c0,2.8,2.3,5,5,5h42.6c2.8,0,5-2.3,5-5V77.4c0-2.8-2.3-5-5-5ZM1859.3,262.9c-3.5,6.5-8.4,11.7-14.5,15.5-6.2,3.8-12.8,5.6-20.2,5.6s-14.6-1.8-20.7-5.6c-6.1-3.8-10.8-8.8-14.2-15.4-3.4-6.6-5.2-14.1-5.2-22.3s1.8-15.9,5.4-22.5c3.5-6.5,8.3-11.6,14.3-15.2,6-3.6,12.8-5.4,20.4-5.4s14,1.8,20.2,5.6c6.1,3.8,11,9,14.5,15.5,3.6,6.6,5.4,14,5.4,22s-1.8,15.6-5.4,22.2Z"/>
              <path class="cls-2" d="M1288.4,326.9l62.1-168.7c.6-1.5.3-3.3-.6-4.6-.9-1.3-2.5-2.2-4.1-2.2h-45.4c-2.1,0-4,1.3-4.7,3.4l-37.6,107-37.7-107c-.7-2-2.6-3.4-4.7-3.4h-45.2c-1.6,0-3.2.8-4.1,2.2-.9,1.3-1.2,3.1-.6,4.6l15.5,42.3-21.5,61.4-37.7-107c-.7-2-2.6-3.4-4.7-3.4h-45.2c-1.6,0-3.2.8-4.1,2.2-.9,1.3-1.2,3.1-.6,4.6l62.1,168.7c.7,2,2.6,3.3,4.7,3.3h51.3c2.1,0,4-1.3,4.7-3.3l18.8-51.2,18.8,51.2c.7,2,2.6,3.3,4.7,3.3h51.3c2.1,0,4-1.3,4.7-3.3Z"/>
            </g>
            <g>
              <path class="cls-2" d="M453.2,440.7c-1.5-1.2-3.1-2.2-4.9-2.8,1.2-.5,2.2-1.3,3.3-2.3,1-1.1,1.8-2.3,2.5-3.8.6-1.4.9-2.9.9-4.4,0-3.1-.7-5.8-2.2-8.1-1.4-2.3-3.5-4-6.1-5.2-2.6-1.2-5.7-1.8-9.3-1.8h-24.3v54.6h26.6c3.2,0,6.2-.6,9-1.7,2.8-1.1,5-2.9,6.7-5.4,1.7-2.4,2.6-5.5,2.6-9.2s-.4-3.8-1.3-5.5c-.9-1.7-2-3.2-3.5-4.4ZM425.7,422.8h11.2c1.1,0,2,.2,2.9.7.9.5,1.5,1.2,2,2,.5.9.7,1.8.7,2.9s-.2,2.1-.7,3c-.5.9-1.2,1.6-2,2.1-.9.5-1.8.8-2.9.8h-11.1v-11.5ZM444.5,453.1c-.6,1-1.4,1.8-2.4,2.3-1,.5-2.2.8-3.5.8h-12.9v-12.8h12.9c1.3,0,2.4.3,3.4.8,1,.5,1.8,1.3,2.4,2.2.6,1,.9,2,.9,3.1s-.3,2.5-.9,3.5Z"/>
              <path class="cls-2" d="M515,412.1l-22.5,54.7h13.1l3.6-9.1h23.1l3.6,9.1h13.1l-22.5-54.7h-11.6ZM513.3,447.5l7-17.7.4-1.6h.1l.3,1.6,7.1,17.7h-14.9Z"/>
              <polygon class="cls-2" points="624.3 446.7 597.8 412.2 586.9 412.2 586.9 466.8 599.4 466.8 599.4 432.3 625.9 466.8 636.6 466.8 636.6 412.2 624.3 412.2 624.3 446.7"/>
              <polygon class="cls-2" points="726 412.2 711.6 412.2 691.7 437.9 691.7 412.2 679.3 412.2 679.3 466.8 691.7 466.8 691.7 454.3 698.7 445.4 713.9 466.8 728.5 466.8 706.8 436.5 726 412.2"/>
              <rect class="cls-2" x="766.2" y="412.2" width="12.4" height="54.6"/>
              <polygon class="cls-2" points="858.5 446.7 832 412.2 821.1 412.2 821.1 466.8 833.6 466.8 833.6 432.3 860.1 466.8 870.8 466.8 870.8 412.2 858.5 412.2 858.5 446.7"/>
              <path class="cls-2" d="M943.3,447h8.2v5.8c-1.6,1.3-3.4,2.2-5.4,2.9-2,.7-4.4,1-7,1s-5.6-.7-8-2.2c-2.4-1.5-4.4-3.5-5.8-6.2-1.4-2.6-2.2-5.6-2.2-8.9s.7-6.3,2.2-8.9c1.5-2.6,3.4-4.7,5.9-6.1,2.5-1.5,5.2-2.2,8.2-2.2s5.6.5,7.9,1.5c2.3,1,4.3,2.5,6,4.5l7.8-8.2c-2.6-2.7-5.7-4.9-9.3-6.6-3.6-1.7-7.4-2.6-11.6-2.6s-10.4,1.3-14.9,3.8c-4.5,2.6-8.1,6-10.8,10.4-2.7,4.4-4,9.2-4,14.3s1.3,10.1,3.9,14.4c2.6,4.4,6.1,7.8,10.5,10.4,4.4,2.6,9.1,3.8,14.3,3.8s9-.9,12.8-2.6c3.8-1.8,7.2-4.3,10-7.7v-19.6h-18.9v8.8Z"/>
              <polygon class="cls-2" points="1086.3 435.9 1069.1 412.2 1058.2 412.2 1058.2 466.8 1070.6 466.8 1070.6 431.8 1084.7 451.9 1087.9 451.9 1102.2 431.9 1102.2 466.8 1114.6 466.8 1114.6 412.2 1103.8 412.2 1086.3 435.9"/>
              <path class="cls-2" d="M1174.9,412.1l-22.5,54.7h13.1l3.6-9.1h23.1l3.6,9.1h13.1l-22.5-54.7h-11.6ZM1173.3,447.5l7-17.7.4-1.6h.1l.3,1.6,7.1,17.7h-14.9Z"/>
              <path class="cls-2" d="M1284.2,415.6c-4.4-2.3-9.5-3.4-15.3-3.4h-22v54.6h22.1c5.8,0,10.8-1.1,15.2-3.4,4.4-2.3,7.8-5.5,10.2-9.6,2.4-4.1,3.6-8.9,3.6-14.3s-1.2-10.1-3.7-14.3c-2.4-4.1-5.9-7.3-10.3-9.6ZM1283.7,448.3c-1.4,2.4-3.3,4.3-5.9,5.6-2.6,1.3-5.6,1.9-9.2,1.9h-9.5v-32.7h9.4c3.6,0,6.7.7,9.3,2,2.6,1.4,4.5,3.3,5.8,5.7,1.3,2.5,2,5.4,2,8.7s-.7,6.2-2,8.7Z"/>
              <polygon class="cls-2" points="1350.5 444.3 1372.8 444.3 1372.8 433.9 1350.5 433.9 1350.5 423.2 1376.5 423.2 1376.5 412.2 1338 412.2 1338 466.8 1376.8 466.8 1376.8 455.8 1350.5 455.8 1350.5 444.3"/>
              <path class="cls-2" d="M1513,440.7c-1.5-1.2-3.1-2.2-4.9-2.8,1.2-.5,2.2-1.3,3.3-2.3,1-1.1,1.8-2.3,2.5-3.8.6-1.4.9-2.9.9-4.4,0-3.1-.7-5.8-2.2-8.1-1.4-2.3-3.5-4-6.1-5.2-2.6-1.2-5.7-1.8-9.3-1.8h-24.3v54.6h26.6c3.2,0,6.2-.6,9-1.7,2.8-1.1,5-2.9,6.7-5.4,1.7-2.4,2.6-5.5,2.6-9.2s-.4-3.8-1.3-5.5c-.9-1.7-2-3.2-3.5-4.4ZM1485.5,422.8h11.2c1.1,0,2,.2,2.9.7.9.5,1.5,1.2,2,2,.5.9.7,1.8.7,2.9s-.2,2.1-.7,3c-.5.9-1.2,1.6-2,2.1-.9.5-1.8.8-2.9.8h-11.1v-11.5ZM1504.3,453.1c-.6,1-1.4,1.8-2.4,2.3-1,.5-2.2.8-3.5.8h-12.9v-12.8h12.9c1.3,0,2.4.3,3.4.8,1,.5,1.8,1.3,2.4,2.2.6,1,.9,2,.9,3.1s-.3,2.5-.9,3.5Z"/>
              <polygon class="cls-2" points="1570.1 444.3 1592.4 444.3 1592.4 433.9 1570.1 433.9 1570.1 423.2 1596.1 423.2 1596.1 412.2 1557.7 412.2 1557.7 466.8 1596.4 466.8 1596.4 455.8 1570.1 455.8 1570.1 444.3"/>
              <polygon class="cls-2" points="1634.3 423.2 1649.7 423.2 1649.7 466.8 1662 466.8 1662 423.2 1677.4 423.2 1677.4 412.2 1634.3 412.2 1634.3 423.2"/>
              <polygon class="cls-2" points="1715.2 423.2 1730.6 423.2 1730.6 466.8 1742.9 466.8 1742.9 423.2 1758.3 423.2 1758.3 412.2 1715.2 412.2 1715.2 423.2"/>
              <polygon class="cls-2" points="1809 444.3 1831.3 444.3 1831.3 433.9 1809 433.9 1809 423.2 1835 423.2 1835 412.2 1796.6 412.2 1796.6 466.8 1835.4 466.8 1835.4 455.8 1809 455.8 1809 444.3"/>
              <path class="cls-2" d="M1912.7,442.8c1.6-1.6,2.8-3.4,3.6-5.5.9-2.1,1.3-4.4,1.3-6.8,0-3.6-.8-6.8-2.5-9.5-1.7-2.8-4-4.9-7-6.5-3-1.5-6.3-2.3-10.1-2.3h-23.9v54.6h12.4v-18.4h7.3c.4,0,.8,0,1.2,0l9.8,18.4h14.2l-11.8-20.4c2.1-.9,4-2.1,5.5-3.7ZM1904.2,434.4c-.7,1.2-1.6,2-2.8,2.7-1.2.6-2.5.9-3.9.9h-11v-14.8h11c1.4,0,2.7.3,3.9,1,1.2.7,2.1,1.6,2.8,2.7.7,1.1,1,2.3,1,3.6s-.3,2.7-1,3.9Z"/>
            </g>
          </g>
          <path class="cls-2" d="M214.9,175.2L76.2,36.6c-2-2-5.1-2-7.1,0l-31.5,31.5c-2,2-2,5.1,0,7.1l76.2,76.2H6c-2.8,0-5,2.3-5,5v44.6c0,2.8,2.3,5,5,5h107.8l-76.2,76.2c-2,2-2,5.1,0,7.1l31.5,31.5c2,2,5.1,2,7.1,0l138.6-138.6c2-2,2-5.1,0-7.1Z"/>
        </g>
      </g>
    </g>
  </g>
</svg>