<?xml version="1.0" encoding="UTF-8"?>
<svg xmlns="http://www.w3.org/2000/svg" version="1.1" viewBox="0 0 1920 617.1">
  <defs>
    <style>
      .cls-1 {
        fill: #5d00a0;
      }

      .cls-2 {
        fill: #f9a621;
      }
    </style>
  </defs>
  <!-- Generator: Adobe Illustrator 28.7.1, SVG Export Plug-In . SVG Version: 1.2.0 Build 142)  -->
  <g>
    <g id="Logo">
      <g>
        <g>
          <path class="cls-2" d="M318.1,234.3l68.5-68.5c1.8-1.8,1.8-4.6,0-6.4l-28.3-28.3c-1.8-1.8-4.6-1.8-6.4,0l-68.5,68.5c7.6,3.1,14.7,7.8,20.8,13.9,6.2,6.2,10.8,13.2,13.9,20.8Z"/>
          <path class="cls-2" d="M283.4,199.6v-96.9c0-2.5-2-4.5-4.5-4.5h-40.1c-2.5,0-4.5,2-4.5,4.5v96.9c15.7-6.5,33.4-6.5,49.1,0Z"/>
          <path class="cls-2" d="M415,234.3h-96.9c6.5,15.7,6.5,33.4,0,49.1h96.9c2.5,0,4.5-2,4.5-4.5v-40.1c0-2.5-2-4.5-4.5-4.5Z"/>
          <path class="cls-2" d="M234.3,318.1v96.9c0,2.5,2,4.5,4.5,4.5h40.1c2.5,0,4.5-2,4.5-4.5v-96.9c-15.7,6.5-33.4,6.5-49.1,0Z"/>
          <path class="cls-2" d="M318.1,283.4c-3.1,7.6-7.8,14.7-13.9,20.8-6.2,6.2-13.2,10.8-20.8,13.9l68.5,68.5c1.8,1.8,4.6,1.8,6.4,0l28.3-28.3c1.8-1.8,1.8-4.6,0-6.4l-68.5-68.5Z"/>
        </g>
        <g>
          <g>
            <g>
              <path class="cls-1" d="M640.7,366.7c7.9-10.8,11.9-24,11.9-39.1s-3.9-27.4-11.5-37.4c-7.5-9.8-17.4-17.5-29.5-22.9-11.7-5.3-25.6-9.4-41.3-12.1-12.5-2-22.7-4.4-30.4-7-7.3-2.5-12.7-5.5-16.2-9.1-3.2-3.3-4.7-7.2-4.7-12s1-8.1,3-11.5c1.9-3.3,5.5-6,10.7-8.2,5.6-2.3,13.3-3.5,23.1-3.5s16.4,1.2,22.2,3.7c5.6,2.4,9.6,5.5,12.2,9.3,2.6,3.8,3.8,8.1,3.8,13s2,4.5,4.5,4.5h41.5c2.5,0,4.5-2,4.5-4.5,0-14.3-3.4-26.9-10.2-37.6-6.8-10.7-17-19.1-30.2-24.9-13-5.7-29.1-8.6-47.7-8.6s-35.5,2.9-48.4,8.5c-13.1,5.8-23.1,13.9-29.6,24.2-6.5,10.2-9.7,22.2-9.7,35.4s4.5,28,13.3,37.8c8.5,9.5,19.1,16.8,31.3,21.6,11.8,4.7,25.9,8.7,41.7,12,10.8,2.1,19.8,4.5,26.8,7.1,6.6,2.4,11.7,5.5,15.2,9.3,3.2,3.5,4.8,7.7,4.8,13s-1.5,11.2-4.5,15.3c-3,4.1-7.7,7.2-13.9,9.2-6.7,2.2-15.3,3.4-25.8,3.4s-16-1.2-22.3-3.7c-6.1-2.4-11.1-5.7-14.8-9.8-3.6-4-5.8-8.5-6.6-13.6l-.3-2.8c0-.8-.1-1.6-.1-2.4,0-2.5-2-4.5-4.5-4.5h-41.3c-2.5,0-4.5,2-4.5,4.5,0,13.1,3.4,25.6,10.1,37.2,6.8,11.6,17.4,21.2,31.7,28.4,14.1,7.1,31.9,10.7,52.8,10.7s35.3-2.8,49.4-8.2c14.4-5.6,25.6-13.8,33.5-24.6Z"/>
              <path class="cls-1" d="M841.5,238.8c0-2.5-2-4.5-4.5-4.5h-40.1c-2.5,0-4.5,2-4.5,4.5v79.7c0,7.8-1.1,14.4-3.1,19.6-2,4.9-4.9,8.6-8.9,11.2-4,2.6-9.3,3.9-15.6,3.9-9.3,0-16-2.7-20.5-8.4-4.7-5.8-7-14.7-7-26.3v-79.7c0-2.5-2-4.5-4.5-4.5h-40.1c-2.5,0-4.5,2-4.5,4.5v80.9c0,18.2,3.3,33.4,9.9,45.3,6.6,12,15.9,20.9,27.5,26.4,11.3,5.4,24.6,8.1,39.4,8.1s27.9-2.7,39.2-8.1c11.5-5.5,20.8-14.4,27.5-26.4,6.6-11.8,10-27.1,10-45.3v-80.9Z"/>
              <path class="cls-1" d="M1009.5,239.1c-9.8-6.3-22-9.5-36.3-9.5s-15,1.2-21.9,3.5c-7,2.3-13.2,5.6-18.6,9.7-1.6,1.3-3.2,2.6-4.6,4v-8c0-2.5-2-4.5-4.5-4.5h-38.3c-2.5,0-4.5,2-4.5,4.5v151.5c0,2.5,2,4.5,4.5,4.5h40.2c2.5,0,4.5-2,4.5-4.5v-76.2c0-8.3,1.5-15.5,4.6-21.2,3-5.7,6.9-10,11.7-12.8,4.9-2.9,10-4.3,15.8-4.3,8.7,0,15.2,2.5,19.9,7.7,4.7,5.3,7.1,14.1,7.1,26.2v80.6c0,2.5,2,4.5,4.5,4.5h40.4c2.5,0,4.5-2,4.5-4.5v-81.5c0-16.5-2.4-30.7-7-42.3-4.8-11.9-12.2-21.2-22-27.5Z"/>
              <path class="cls-1" d="M1489.8,234.3h-38.2c-2.5,0-4.5,2-4.5,4.5v9c-1.6-1.7-3.4-3.3-5.2-4.7-5.5-4.4-12-7.8-19.3-10.1-7.2-2.3-15-3.4-23.2-3.4-14,0-26.9,3.9-38.3,11.5-11.4,7.6-20.4,18-26.9,31-6.4,12.9-9.6,27.2-9.6,42.4s3.2,29.6,9.6,42.4c6.4,12.9,15.5,23.4,26.8,31,11.5,7.7,24.4,11.6,38.5,11.6s15.9-1.2,23.1-3.5c7.2-2.4,13.6-5.7,19.2-10,1.8-1.4,3.6-3,5.2-4.6v8.8c0,2.5,2,4.5,4.5,4.5h38.3c2.5,0,4.5-2,4.5-4.5v-151.5c0-2.5-2-4.5-4.5-4.5ZM1440.6,334.4c-3.2,5.9-7.5,10.6-13,13.9-5.5,3.4-11.4,5-18.2,5s-12.5-1.5-17.9-4.6c-5.5-3-9.7-7.4-13-13.2-3.3-5.8-4.9-12.9-4.9-21s1.6-14.7,4.9-20.6c3.2-5.8,7.6-10.3,13-13.4,5.4-3.1,11.6-4.7,18.2-4.7s12.4,1.7,18,5.1c5.5,3.4,9.9,8.1,13.1,13.9,3.2,5.9,4.8,12.5,4.8,19.6s-1.6,13.9-4.8,19.9Z"/>
              <path class="cls-1" d="M1631.9,234.3h-16.9c-6.7,0-12.8,1.1-18.2,3.3-5.4,2.2-10.2,5.4-14.2,9.5-.5.5-.9,1-1.4,1.4v-9.6c0-2.5-2-4.5-4.5-4.5h-38.6c-2.5,0-4.5,2-4.5,4.5v151.5c0,2.5,2,4.5,4.5,4.5h40.4c2.5,0,4.5-2,4.5-4.5v-70.2c0-9.2,1.5-17.1,4.4-23.5,2.8-6.3,6.7-10.9,11.8-14,5.1-3.2,11.2-4.7,18.1-4.7h14.7c2.5,0,4.5-2,4.5-4.5v-34.5c0-2.5-2-4.5-4.5-4.5Z"/>
              <path class="cls-1" d="M1817.3,163.3h-40.1c-2.5,0-4.5,2-4.5,4.5v76.3c0,0,0,.2,0,.2v2.6c-.8-.9-1.9-1.8-2.9-2.7-5-4.2-10.9-7.7-17.7-10.4-6.8-2.7-14.2-4.1-22-4.1-15.3,0-29,3.8-40.8,11.4-11.8,7.6-21,18-27.4,31-6.3,12.9-9.6,27.2-9.6,42.5s3.3,29.8,9.7,42.6c6.5,13,15.7,23.4,27.4,31,11.8,7.6,25.3,11.5,40.2,11.5s15.8-1.4,22.7-4.1c6.9-2.7,12.9-6.2,17.8-10.6,1.5-1.3,2.9-2.7,4.3-4.1v9.4c0,2.5,2,4.5,4.5,4.5h38.3c2.5,0,4.5-2,4.5-4.5v-222.5c0-2.5-2-4.5-4.5-4.5ZM1768.2,334.5c-3.2,5.9-7.6,10.6-13.1,13.9-5.5,3.4-11.5,5.1-18.1,5.1s-13.1-1.7-18.6-5c-5.5-3.4-9.7-7.9-12.8-13.9-3.1-5.9-4.6-12.7-4.6-20s1.6-14.3,4.8-20.2c3.2-5.9,7.5-10.5,12.9-13.7,5.4-3.2,11.5-4.9,18.3-4.9s12.6,1.7,18.1,5.1c5.5,3.4,9.9,8.1,13.1,13.9,3.2,5.9,4.8,12.6,4.8,19.8s-1.6,14-4.8,19.9Z"/>
              <path class="cls-1" d="M1255.1,392l55.8-151.6c.5-1.4.3-2.9-.5-4.1-.8-1.2-2.2-1.9-3.7-1.9h-40.8c-1.9,0-3.6,1.2-4.3,3l-33.8,96.2-33.9-96.2c-.6-1.8-2.3-3-4.3-3h-40.7c-1.5,0-2.9.7-3.7,1.9-.8,1.2-1,2.8-.5,4.1l14,38-19.4,55.1-33.9-96.2c-.6-1.8-2.3-3-4.3-3h-40.7c-1.5,0-2.9.7-3.7,1.9-.8,1.2-1,2.8-.5,4.1l55.8,151.6c.7,1.8,2.3,3,4.2,3h46.1c1.9,0,3.6-1.2,4.2-3l16.9-46,16.9,46c.7,1.8,2.3,3,4.2,3h46.1c1.9,0,3.6-1.2,4.2-3Z"/>
            </g>
            <g>
              <path class="cls-1" d="M504.6,494.2c-1.3-1.1-2.8-2-4.4-2.5,1-.4,2-1.1,2.9-2.1.9-1,1.6-2.1,2.2-3.4.6-1.3.8-2.6.8-4,0-2.8-.6-5.3-1.9-7.3-1.3-2.1-3.1-3.6-5.5-4.7-2.4-1.1-5.1-1.6-8.3-1.6h-21.8v49.1h23.9c2.9,0,5.6-.5,8.1-1.5,2.5-1,4.5-2.6,6-4.8,1.6-2.2,2.3-4.9,2.3-8.2s-.4-3.4-1.2-4.9c-.8-1.5-1.8-2.9-3.2-4ZM479.9,478.1h10c1,0,1.8.2,2.6.7.8.4,1.4,1,1.8,1.8.4.8.7,1.7.7,2.6s-.2,1.9-.7,2.7c-.4.8-1,1.4-1.8,1.9-.8.5-1.7.7-2.6.7h-10v-10.3ZM496.7,505.4c-.5.9-1.2,1.6-2.1,2.1-.9.5-1.9.7-3.1.7h-11.6v-11.5h11.6c1.1,0,2.2.2,3.1.7.9.5,1.6,1.2,2.2,2,.5.9.8,1.8.8,2.8s-.3,2.2-.8,3.1Z"/>
              <path class="cls-1" d="M560.1,468.6l-20.2,49.1h11.8l3.2-8.2h20.8l3.3,8.2h11.8l-20.2-49.1h-10.4ZM558.6,500.3l6.3-15.9.3-1.4h.1l.3,1.4,6.3,15.9h-13.4Z"/>
              <polygon class="cls-1" points="658.3 499.6 634.5 468.6 624.8 468.6 624.8 517.7 635.9 517.7 635.9 486.7 659.8 517.7 669.4 517.7 669.4 468.6 658.3 468.6 658.3 499.6"/>
              <polygon class="cls-1" points="749.7 468.6 736.7 468.6 718.9 491.7 718.9 468.6 707.7 468.6 707.7 517.7 718.9 517.7 718.9 506.5 725.2 498.4 738.8 517.7 752 517.7 732.4 490.5 749.7 468.6"/>
              <rect class="cls-1" x="785.8" y="468.6" width="11.2" height="49.1"/>
              <polygon class="cls-1" points="868.8 499.6 844.9 468.6 835.2 468.6 835.2 517.7 846.4 517.7 846.4 486.7 870.2 517.7 879.9 517.7 879.9 468.6 868.8 468.6 868.8 499.6"/>
              <path class="cls-1" d="M945,499.9h7.4v5.2c-1.4,1.1-3,2-4.9,2.6-1.8.6-3.9.9-6.3.9s-5-.7-7.2-2c-2.2-1.3-3.9-3.2-5.2-5.5-1.3-2.4-2-5-2-8s.7-5.7,2-8c1.3-2.4,3.1-4.2,5.3-5.5,2.2-1.3,4.7-2,7.4-2s5.1.4,7.1,1.3c2.1.9,3.9,2.3,5.4,4.1l7-7.4c-2.4-2.4-5.1-4.4-8.3-5.9-3.2-1.5-6.7-2.3-10.4-2.3s-9.3,1.2-13.4,3.4c-4.1,2.3-7.3,5.4-9.7,9.4-2.4,3.9-3.6,8.2-3.6,12.9s1.2,9,3.5,13c2.3,3.9,5.5,7.1,9.4,9.4,3.9,2.3,8.2,3.4,12.8,3.4s8.1-.8,11.5-2.4c3.4-1.6,6.4-3.9,9-6.9v-17.6h-17v7.9Z"/>
              <polygon class="cls-1" points="1073.5 489.9 1058 468.6 1048.2 468.6 1048.2 517.7 1059.4 517.7 1059.4 486.3 1072.1 504.3 1074.9 504.3 1087.8 486.4 1087.8 517.7 1098.9 517.7 1098.9 468.6 1089.2 468.6 1073.5 489.9"/>
              <path class="cls-1" d="M1153.2,468.6l-20.2,49.1h11.8l3.2-8.2h20.8l3.3,8.2h11.8l-20.2-49.1h-10.4ZM1151.7,500.3l6.3-15.9.3-1.4h.1l.3,1.4,6.3,15.9h-13.4Z"/>
              <path class="cls-1" d="M1251.4,471.7c-4-2-8.6-3.1-13.8-3.1h-19.8v49.1h19.9c5.2,0,9.7-1,13.7-3.1,4-2,7-4.9,9.2-8.6,2.2-3.7,3.3-8,3.3-12.9s-1.1-9.1-3.3-12.8c-2.2-3.7-5.3-6.6-9.2-8.6ZM1250.9,501.1c-1.2,2.2-3,3.9-5.3,5-2.3,1.2-5,1.7-8.3,1.7h-8.5v-29.4h8.5c3.3,0,6.1.6,8.4,1.8,2.3,1.2,4.1,2.9,5.2,5.2,1.2,2.2,1.8,4.8,1.8,7.8s-.6,5.6-1.8,7.8Z"/>
              <polygon class="cls-1" points="1310.9 497.5 1330.9 497.5 1330.9 488.1 1310.9 488.1 1310.9 478.5 1334.2 478.5 1334.2 468.6 1299.7 468.6 1299.7 517.7 1334.6 517.7 1334.6 507.8 1310.9 507.8 1310.9 497.5"/>
              <path class="cls-1" d="M1456.9,494.2c-1.3-1.1-2.8-2-4.4-2.5,1-.4,2-1.1,2.9-2.1.9-1,1.6-2.1,2.2-3.4.6-1.3.8-2.6.8-4,0-2.8-.6-5.3-1.9-7.3-1.3-2.1-3.1-3.6-5.5-4.7-2.4-1.1-5.1-1.6-8.3-1.6h-21.8v49.1h23.9c2.9,0,5.6-.5,8.1-1.5,2.5-1,4.5-2.6,6-4.8,1.6-2.2,2.3-4.9,2.3-8.2s-.4-3.4-1.2-4.9c-.8-1.5-1.8-2.9-3.2-4ZM1432.2,478.1h10c1,0,1.8.2,2.6.7.8.4,1.4,1,1.8,1.8.4.8.7,1.7.7,2.6s-.2,1.9-.7,2.7c-.4.8-1,1.4-1.8,1.9-.8.5-1.7.7-2.6.7h-10v-10.3ZM1449.1,505.4c-.5.9-1.2,1.6-2.1,2.1-.9.5-1.9.7-3.1.7h-11.6v-11.5h11.6c1.1,0,2.2.2,3.1.7.9.5,1.6,1.2,2.2,2,.5.9.8,1.8.8,2.8s-.3,2.2-.8,3.1Z"/>
              <polygon class="cls-1" points="1508.2 497.5 1528.3 497.5 1528.3 488.1 1508.2 488.1 1508.2 478.5 1531.6 478.5 1531.6 468.6 1497.1 468.6 1497.1 517.7 1531.9 517.7 1531.9 507.8 1508.2 507.8 1508.2 497.5"/>
              <polygon class="cls-1" points="1566 478.5 1579.8 478.5 1579.8 517.7 1590.9 517.7 1590.9 478.5 1604.7 478.5 1604.7 468.6 1566 468.6 1566 478.5"/>
              <polygon class="cls-1" points="1638.6 478.5 1652.4 478.5 1652.4 517.7 1663.5 517.7 1663.5 478.5 1677.4 478.5 1677.4 468.6 1638.6 468.6 1638.6 478.5"/>
              <polygon class="cls-1" points="1723 497.5 1743 497.5 1743 488.1 1723 488.1 1723 478.5 1746.3 478.5 1746.3 468.6 1711.8 468.6 1711.8 517.7 1746.7 517.7 1746.7 507.8 1723 507.8 1723 497.5"/>
              <path class="cls-1" d="M1816.1,496.1c1.4-1.4,2.5-3,3.3-4.9.8-1.9,1.2-3.9,1.2-6.1,0-3.2-.8-6.1-2.3-8.6-1.5-2.5-3.6-4.4-6.3-5.8-2.7-1.4-5.7-2.1-9.1-2.1h-21.5v49.1h11.2v-16.5h6.6c.3,0,.7,0,1.1,0l8.8,16.6h12.8l-10.6-18.3c1.9-.8,3.6-1.9,5-3.3ZM1808.5,488.6c-.6,1-1.4,1.8-2.5,2.4-1.1.6-2.2.8-3.5.8h-9.9v-13.3h9.9c1.3,0,2.4.3,3.5.9,1.1.6,1.9,1.4,2.5,2.4.6,1,.9,2.1.9,3.2s-.3,2.5-.9,3.5Z"/>
            </g>
          </g>
          <path class="cls-1" d="M290.4,255.7l-124.6-124.6c-1.8-1.8-4.6-1.8-6.4,0l-28.3,28.3c-1.8,1.8-1.8,4.6,0,6.4l68.5,68.5h-96.9c-2.5,0-4.5,2-4.5,4.5v40.1c0,2.5,2,4.5,4.5,4.5h96.8l-68.5,68.5c-1.8,1.8-1.8,4.6,0,6.4l28.3,28.3c1.8,1.8,4.6,1.8,6.4,0l124.6-124.6c1.8-1.8,1.8-4.6,0-6.4Z"/>
        </g>
      </g>
    </g>
  </g>
</svg>